#!OML:ASF F:\VICON\USERDATA\INSTALL\rory3\rory3.ASF
:FULLY-SPECIFIED
:DEGREES
2080
root -6.69086 18.1937 5.63017 -714.016 -120.255 712.269
lowerback 3.04104 -2.43341 -8.96111
upperback -2.41761 -3.59629 5.1685
thorax -3.37907 -1.53433 10.7954
lowerneck -16.2944 3.48942 -14.5775
upperneck -9.36147 6.52568 18.495
head -1.12877 3.4485 8.48681
rclavicle -3.04141e-014 -3.33958e-014
rhumerus 10.516 -40.2557 -4.4378
rradius 66.2848
rwrist -20.7245
rhand -27.593 4.90474
rfingers 7.12502
rthumb -0.992866 -25.0727
lclavicle -3.04141e-014 -3.33958e-014
lhumerus 36.4296 17.2624 9.01627
lradius 50.9827
lwrist -2.58392
lhand -16.1718 18.3505
lfingers 7.12502
lthumb 10.0344 48.0913
rfemur -18.88 5.08283 15.6451
rtibia 37.5308
rfoot 9.13537 16.1513
rtoes 26.2177
lfemur -2.96739 5.79496 -25.4757
ltibia 34.626
lfoot -2.06076 7.69889
ltoes -29.5721
2081
root -6.68294 18.113 5.60124 -714.006 -119.956 712.037
lowerback 3.42398 -2.54339 -8.86739
upperback -2.53381 -3.76955 4.78264
thorax -3.70515 -1.59736 10.347
lowerneck -16.097 3.41862 -14.5522
upperneck -9.31315 6.41906 18.7961
head -1.12738 3.39077 8.57827
rclavicle 3.83654e-014 2.22639e-014
rhumerus 13.0051 -40.7352 -4.57554
rradius 64.968
rwrist -20.294
rhand -27.6572 4.87008
rfingers 7.12502
rthumb -1.05487 -25.1071
lclavicle 3.83654e-014 2.22639e-014
lhumerus 36.3539 16.0923 9.3861
lradius 51.8054
lwrist -2.26904
lhand -16.2042 17.9518
lfingers 7.12502
lthumb 10.0031 47.6941
rfemur -18.482 5.93712 16.0033
rtibia 38.097
rfoot 5.2639 15.3597
rtoes 26.6935
lfemur -3.05851 6.55759 -25.168
ltibia 35.6545
lfoot -3.52685 6.59254
ltoes -30.4688
2082
root -6.67487 18.0242 5.56974 -713.967 -119.633 711.8
lowerback 3.67489 -2.60522 -8.88101
upperback -2.61223 -3.87538 4.47792
thorax -3.92396 -1.63287 10.0427
lowerneck -15.6953 3.32913 -14.7281
upperneck -9.47416 6.32232 19.0417
head -1.22655 3.33142 8.68077
rclavicle -1.12512e-013 -7.15625e-014
rhumerus 15.4622 -41.2363 -4.41104
rradius 63.4334
rwrist -19.787
rhand -27.6345 4.85759
rfingers 7.12502
rthumb -1.03292 -25.1197
lclavicle -1.12512e-013 -7.15625e-014
lhumerus 36.4657 14.9716 10.1452
lradius 52.5475
lwrist -2.12839
lhand -15.9831 17.9659
lfingers 7.12502
lthumb 10.2165 47.6978
rfemur -18.139 6.76868 16.3651
rtibia 38.7604
rfoot 1.4001 14.2073
rtoes 21.3159
lfemur -3.16843 7.41252 -24.8087
ltibia 36.6398
lfoot -4.93958 5.18831
ltoes -31.0178
2083
root -6.66859 17.933 5.53815 -713.918 -119.234 711.544
lowerback 3.79113 -2.65877 -8.88988
upperback -2.58959 -3.95859 4.12045
thorax -3.96872 -1.67266 9.66397
lowerneck -15.3114 3.25243 -14.5432
upperneck -9.70892 6.18026 19.1281
head -1.32253 3.23142 8.66566
rclavicle 1.73937e-014 4.77083e-014
rhumerus 18.0214 -42.1092 -4.53862
rradius 61.8704
rwrist -19.3197
rhand -27.3985 4.76338
rfingers 7.12502
rthumb -0.804994 -25.2148
lclavicle 1.73937e-014 4.77083e-014
lhumerus 36.6994 13.9532 10.9659
lradius 53.3557
lwrist -1.9998
lhand -15.7681 18.3883
lfingers 7.12502
lthumb 10.4239 48.1098
rfemur -17.8479 7.65501 16.7339
rtibia 39.3717
rfoot -0.970295 13.377
rtoes 19.1925
lfemur -3.1986 8.15525 -24.4063
ltibia 37.5375
lfoot -6.25435 3.95273
ltoes -30.7216
2084
root -6.66563 17.868 5.49979 -714.28 -118.832 711.72
lowerback 3.83609 -2.73597 -8.78431
upperback -2.49939 -4.05973 3.83686
thorax -3.90011 -1.73466 9.29403
lowerneck -15.0981 3.16279 -14.1064
upperneck -9.76361 5.97793 19.1566
head -1.32075 3.1032 8.5896
rclavicle 4.09496e-014 7.79236e-014
rhumerus 20.9986 -43.1863 -5.16415
rradius 60.3946
rwrist -19.0938
rhand -26.6548 4.35799
rfingers 7.12502
rthumb -0.086636 -25.6217
lclavicle 4.09496e-014 7.79236e-014
lhumerus 36.9122 13.0753 11.8287
lradius 54.1043
lwrist -1.98999
lhand -15.2345 18.2088
lfingers 7.12502
lthumb 10.9386 47.9039
rfemur -17.5048 8.55834 17.3616
rtibia 39.7715
rfoot -2.33959 13.1289
rtoes 20.8863
lfemur -3.19384 8.99867 -23.7161
ltibia 38.4216
lfoot -7.28208 2.78691
ltoes -30.3677
2085
root -6.66461 17.7999 5.46466 -714.475 -118.374 711.704
lowerback 3.90407 -2.88685 -8.74187
upperback -2.42391 -4.26627 3.54453
thorax -3.83585 -1.84672 8.95959
lowerneck -14.8306 3.18081 -13.532
upperneck -9.89457 5.89594 18.9793
head -1.36627 3.0248 8.41796
rclavicle 4.75095e-014 3.65764e-014
rhumerus 24.3924 -44.1962 -6.31278
rradius 58.8834
rwrist -18.4455
rhand -26.1956 3.67197
rfingers 7.12502
rthumb 0.356855 -26.3075
lclavicle 4.75095e-014 3.65764e-014
lhumerus 36.9394 12.2611 12.876
lradius 54.875
lwrist -2.24855
lhand -14.6548 17.6759
lfingers 7.12502
lthumb 11.4977 47.3406
rfemur -17.1833 9.08876 17.8744
rtibia 40.0001
rfoot -3.92634 12.5672
rtoes 20.3753
lfemur -3.15349 9.37746 -23.1107
ltibia 39.2682
lfoot -8.32493 1.58653
ltoes -27.5091
2086
root -6.66608 17.7294 5.43166 -715.017 -117.742 712.093
lowerback 4.03222 -3.03098 -8.37926
upperback -2.37544 -4.45054 3.32063
thorax -3.85794 -1.95059 8.52214
lowerneck -14.4363 3.26483 -13.1544
upperneck -10.2336 5.94469 18.7176
head -1.52091 3.00826 8.25188
rclavicle -2.95195e-014 -5.24792e-014
rhumerus 27.7792 -45.1693 -7.45647
rradius 57.3648
rwrist -17.7715
rhand -25.9711 2.91039
rfingers 7.12502
rthumb 0.573683 -27.0686
lclavicle -2.95195e-014 -5.24792e-014
lhumerus 36.9626 11.2531 14.0077
lradius 55.7453
lwrist -2.53682
lhand -14.3242 17.2893
lfingers 7.12502
lthumb 11.8165 46.9359
rfemur -16.7403 9.34354 18.6078
rtibia 40.0702
rfoot -5.99611 11.4183
rtoes 15.8032
lfemur -3.2014 9.80617 -22.2666
ltibia 40.1284
lfoot -9.18404 0.232415
ltoes -25.8037
2087
root -6.66848 17.6627 5.39868 -715.709 -117.039 712.698
lowerback 4.08629 -3.11788 -7.8593
upperback -2.34382 -4.54227 3.16641
thorax -3.88353 -2.01174 8.06393
lowerneck -13.9288 3.3143 -13.0506
upperneck -10.6888 5.9967 18.4273
head -1.73615 2.99941 8.12295
rclavicle 4.92986e-014 4.77083e-015
rhumerus 30.9555 -46.0942 -8.29178
rradius 55.9315
rwrist -17.1817
rhand -26.1158 2.13928
rfingers 7.12502
rthumb 0.433921 -27.84
lclavicle 4.92986e-014 4.77083e-015
lhumerus 37.185 10.1746 15.6148
lradius 56.5629
lwrist -3.00275
lhand -14.4225 16.9559
lfingers 7.12502
lthumb 11.7217 46.608
rfemur -16.2232 9.65589 19.4303
rtibia 40.0945
rfoot -8.07417 10.2283
rtoes 13.3574
lfemur -3.28838 10.2221 -21.3402
ltibia 40.9627
lfoot -10.0143 -1.13296
ltoes -25.117
2088
root -6.66896 17.6086 5.3626 -716.196 -116.371 713.071
lowerback 4.07195 -3.11957 -7.52331
upperback -2.34691 -4.52736 2.99388
thorax -3.91783 -2.01297 7.68534
lowerneck -13.0827 3.27816 -13.1064
upperneck -11.3394 5.9559 18.3022
head -2.05285 2.93148 8.07202
rclavicle -3.97569e-016 1.59028e-015
rhumerus 33.7177 -46.832 -8.74202
rradius 54.5463
rwrist -16.8998
rhand -26.5917 1.46307
rfingers 7.12502
rthumb -0.0257503 -28.5167
lclavicle -3.97569e-016 1.59028e-015
lhumerus 37.6876 9.01276 17.7902
lradius 57.2728
lwrist -3.77739
lhand -14.4217 16.4206
lfingers 7.12502
lthumb 11.7224 46.0726
rfemur -15.696 10.0792 20.1051
rtibia 40.0806
rfoot -10.2459 9.03539
rtoes 15.6612
lfemur -3.36551 10.5096 -20.5865
ltibia 41.7375
lfoot -10.8019 -2.45325
ltoes -24.7988
2089
root -6.66935 17.5563 5.32573 -716.971 -115.662 713.815
lowerback 3.88566 -3.15552 -7.15561
upperback -2.29315 -4.54281 2.85393
thorax -3.78892 -2.04027 7.31003
lowerneck -12.1486 3.24477 -13.0054
upperneck -12.1073 5.89567 18.2488
head -2.41184 2.83542 8.0201
rclavicle 1.40938e-013 2.14687e-014
rhumerus 36.628 -47.673 -9.85465
rradius 53.634
rwrist -16.5454
rhand -26.9256 0.754661
rfingers 7.12502
rthumb -0.348234 -29.2248
lclavicle 1.40938e-013 2.14687e-014
lhumerus 37.9286 7.87535 19.8424
lradius 58.1945
lwrist -4.56625
lhand -14.367 15.7144
lfingers 7.12502
lthumb 11.7753 45.3634
rfemur -15.3043 10.2572 20.8701
rtibia 40.0661
rfoot -12.2388 8.00027
rtoes 16.552
lfemur -3.49462 10.8037 -19.6437
ltibia 42.4267
lfoot -11.5188 -3.76254
ltoes -24.2792
2090
root -6.67237 17.5068 5.29151 -717.851 -114.905 714.564
lowerback 3.7732 -3.33217 -6.75933
upperback -2.13339 -4.749 2.64439
thorax -3.56706 -2.17011 6.85404
lowerneck -11.8808 3.24998 -12.4896
upperneck -12.4386 5.83665 18.131
head -2.52506 2.75796 7.88614
rclavicle 5.59579e-014 2.78299e-014
rhumerus 40.6805 -48.6138 -12.8061
rradius 53.0509
rwrist -15.5526
rhand -27.2091 0.119229
rfingers 7.12502
rthumb -0.622 -29.8596
lclavicle 5.59579e-014 2.78299e-014
lhumerus 37.7328 6.85997 21.5418
lradius 59.3537
lwrist -5.17589
lhand -14.6498 15.222
lfingers 7.12502
lthumb 11.5025 44.8864
rfemur -14.8378 10.0599 21.5441
rtibia 39.9904
rfoot -13.4965 7.38196
rtoes 15.3289
lfemur -3.48767 11.0711 -18.686
ltibia 43.0404
lfoot -12.1049 -5.07165
ltoes -23.5184
